<mxfile host="65bd71144e">
    <diagram id="Ej-NMNtb0UVQGGtbFr6c" name="ページ1">
        <mxGraphModel dx="361" dy="489" grid="1" gridSize="10" guides="1" tooltips="1" connect="1" arrows="1" fold="1" page="1" pageScale="1" pageWidth="827" pageHeight="1169" math="0" shadow="0">
            <root>
                <mxCell id="0"/>
                <mxCell id="1" parent="0"/>
                <mxCell id="2" value="&lt;div&gt;&lt;span&gt;リバーシ&lt;/span&gt;&lt;/div&gt;&lt;div&gt;&lt;span&gt;アプリケーション&lt;/span&gt;&lt;/div&gt;" style="rounded=0;whiteSpace=wrap;html=1;align=center;horizontal=1;verticalAlign=top;" vertex="1" parent="1">
                    <mxGeometry x="90" y="110" width="270" height="450" as="geometry"/>
                </mxCell>
                <mxCell id="3" value="プレイヤー" style="shape=umlActor;verticalLabelPosition=bottom;verticalAlign=top;html=1;outlineConnect=0;" vertex="1" parent="1">
                    <mxGeometry x="40" y="260" width="30" height="60" as="geometry"/>
                </mxCell>
                <mxCell id="7" value="対戦する" style="ellipse;whiteSpace=wrap;html=1;" vertex="1" parent="1">
                    <mxGeometry x="170" y="255" width="140" height="70" as="geometry"/>
                </mxCell>
                <mxCell id="9" value="" style="endArrow=none;html=1;entryX=-0.007;entryY=0.621;entryDx=0;entryDy=0;entryPerimeter=0;" edge="1" parent="1" target="7">
                    <mxGeometry relative="1" as="geometry">
                        <mxPoint x="70" y="294.5" as="sourcePoint"/>
                        <mxPoint x="230" y="294.5" as="targetPoint"/>
                    </mxGeometry>
                </mxCell>
                <mxCell id="15" value="&lt;div style=&quot;text-align: left&quot;&gt;&lt;span style=&quot;font-size: 10px&quot;&gt;・対戦を開始する。&lt;/span&gt;&lt;/div&gt;&lt;font style=&quot;font-size: 10px&quot;&gt;&lt;div style=&quot;text-align: left&quot;&gt;&lt;span&gt;・盤面を見る。&lt;/span&gt;&lt;/div&gt;&lt;div style=&quot;text-align: left&quot;&gt;&lt;span&gt;・石を打つ。&lt;/span&gt;&lt;/div&gt;&lt;div style=&quot;text-align: left&quot;&gt;・勝敗を確認する。&lt;/div&gt;&lt;div style=&quot;text-align: left&quot;&gt;&lt;br&gt;&lt;/div&gt;&lt;/font&gt;" style="shape=note;whiteSpace=wrap;html=1;backgroundOutline=1;darkOpacity=0.05;verticalAlign=top;fillColor=#ffe6cc;strokeColor=#d79b00;" vertex="1" parent="1">
                    <mxGeometry x="230" y="170" width="120" height="70" as="geometry"/>
                </mxCell>
                <mxCell id="16" value="" style="endArrow=none;dashed=1;html=1;dashPattern=1 3;strokeWidth=2;fontSize=10;exitX=0.964;exitY=0.3;exitDx=0;exitDy=0;exitPerimeter=0;" edge="1" parent="1" source="7">
                    <mxGeometry width="50" height="50" relative="1" as="geometry">
                        <mxPoint x="280" y="290" as="sourcePoint"/>
                        <mxPoint x="330" y="240" as="targetPoint"/>
                    </mxGeometry>
                </mxCell>
                <mxCell id="18" value="自分の&lt;br&gt;過去の対戦結果を確認する" style="ellipse;whiteSpace=wrap;html=1;fontSize=10;" vertex="1" parent="1">
                    <mxGeometry x="170" y="330" width="140" height="70" as="geometry"/>
                </mxCell>
                <mxCell id="19" value="会員登録・ログインする" style="ellipse;whiteSpace=wrap;html=1;fontSize=10;" vertex="1" parent="1">
                    <mxGeometry x="170" y="410" width="140" height="70" as="geometry"/>
                </mxCell>
                <mxCell id="20" value="" style="endArrow=none;html=1;entryX=0.021;entryY=0.643;entryDx=0;entryDy=0;entryPerimeter=0;" edge="1" parent="1" target="18">
                    <mxGeometry relative="1" as="geometry">
                        <mxPoint x="80" y="304.5" as="sourcePoint"/>
                        <mxPoint x="179.01999999999998" y="308.47" as="targetPoint"/>
                    </mxGeometry>
                </mxCell>
                <mxCell id="21" value="" style="endArrow=none;html=1;entryX=0;entryY=0.5;entryDx=0;entryDy=0;" edge="1" parent="1" target="19">
                    <mxGeometry relative="1" as="geometry">
                        <mxPoint x="77.06" y="340" as="sourcePoint"/>
                        <mxPoint x="170.00000000000006" y="410.51" as="targetPoint"/>
                    </mxGeometry>
                </mxCell>
                <mxCell id="22" value="" style="rounded=0;whiteSpace=wrap;html=1;fontSize=10;fillColor=none;strokeWidth=5;strokeColor=#FF6459;" vertex="1" parent="1">
                    <mxGeometry x="110" y="250" width="240" height="160" as="geometry"/>
                </mxCell>
            </root>
        </mxGraphModel>
    </diagram>
</mxfile>